<!DOCTYPE svg PUBLIC "-//W3C//DTD SVG 1.1//EN" "http://www.w3.org/Graphics/SVG/1.1/DTD/svg11.dtd">
<!-- Uploaded to: SVG Repo, www.svgrepo.com, Transformed by: SVG Repo Mixer Tools -->
<svg fill="#034ea2" width="800px" height="800px" viewBox="0 0 100 100" version="1.1" xml:space="preserve" xmlns="http://www.w3.org/2000/svg" xmlns:xlink="http://www.w3.org/1999/xlink" stroke="#034ea2" stroke-width="1.9">
<g id="SVGRepo_bgCarrier" stroke-width="0"/>
<g id="SVGRepo_tracerCarrier" stroke-linecap="round" stroke-linejoin="round"/>
<g id="SVGRepo_iconCarrier"> <g id="_x31_"/> <g id="_x32_"/> <g id="_x33_"/> <g id="_x34_"/> <g id="_x35_"/> <g id="_x36_"/> <g id="_x37_"/> <g id="_x38_"/> <g id="_x39_"/> <g id="_x31_0"/> <g id="_x31_1"/> <g id="_x31_2"> <path d="M50,73.8c-18.5,0-33.9-14.3-39.6-20.4c-1.8-1.9-1.8-4.9,0-6.8c5.8-6.1,21.2-20.4,39.6-20.4s33.9,14.3,39.6,20.4h0 c1.8,1.9,1.8,4.9,0,6.8C83.9,59.6,68.5,73.8,50,73.8z M50,30.2c-16.9,0-31.3,13.4-36.7,19.2c-0.4,0.4-0.4,1,0,1.3 c5.4,5.8,19.8,19.2,36.7,19.2s31.3-13.4,36.7-19.2c0.4-0.4,0.4-1,0-1.3C81.3,43.6,66.9,30.2,50,30.2z M50,65.1 c-10.8,0-19.6-8.7-19.6-19.5S39.2,26.2,50,26.2s19.6,8.7,19.6,19.5S60.8,65.1,50,65.1z M50,30.2c-8.6,0-15.6,6.9-15.6,15.5 c0,8.5,7,15.5,15.6,15.5s15.6-6.9,15.6-15.5C65.6,37.1,58.6,30.2,50,30.2z M50,53.5c-4.4,0-7.9-3.5-7.9-7.9s3.6-7.9,7.9-7.9 s7.9,3.5,7.9,7.9S54.4,53.5,50,53.5z M50,41.7c-2.2,0-3.9,1.7-3.9,3.9s1.8,3.9,3.9,3.9s3.9-1.7,3.9-3.9S52.2,41.7,50,41.7z"/> </g> <g id="_x31_3"/> <g id="_x31_4"/> <g id="_x31_5"/> <g id="_x31_6"/> <g id="_x31_7"/> <g id="_x31_8"/> <g id="_x31_9"/> <g id="_x32_0"/> <g id="_x32_1"/> <g id="_x32_2"/> <g id="_x32_3"/> <g id="_x32_4"/> <g id="_x32_5"/> </g>
</svg>