<!DOCTYPE svg PUBLIC "-//W3C//DTD SVG 1.1//EN" "http://www.w3.org/Graphics/SVG/1.1/DTD/svg11.dtd">
<!-- Uploaded to: SVG Repo, www.svgrepo.com, Transformed by: SVG Repo Mixer Tools -->
<svg fill="#034ea2" version="1.1" id="Capa_1" xmlns="http://www.w3.org/2000/svg" xmlns:xlink="http://www.w3.org/1999/xlink" width="800px" height="800px" viewBox="0 0 31.801 31.802" xml:space="preserve" stroke="#034ea2" stroke-width="0.00031800999999999997">
<g id="SVGRepo_bgCarrier" stroke-width="0"/>
<g id="SVGRepo_tracerCarrier" stroke-linecap="round" stroke-linejoin="round"/>
<g id="SVGRepo_iconCarrier"> <g> <path d="M28.154,12.708l-3.188-6.085l0.388-0.508c0.462-0.602,0.346-1.464-0.256-1.925c-0.44-0.337-1.014-0.366-1.472-0.125 l-1.278-2.438c-1.051-2.008-3.042-2.182-4.425-0.386l-5.5,7.139c-1.382,1.796-0.708,3.688,1.499,4.204l1.197,0.28 c2.342-2.415,6.899-7.088,7-7.011c0.103,0.078-8.603,11.219-8.603,11.219c-0.974-0.165-2.003,0.202-2.645,1.039l-7.091,9.274 c-0.921,1.204-0.691,2.93,0.514,3.851c0.499,0.381,1.085,0.565,1.667,0.565c0.827,0,1.645-0.372,2.185-1.079l7.092-9.274 c0.593-0.776,0.708-1.768,0.394-2.621l3.792-4.958l6.628,1.551C28.261,15.937,29.207,14.715,28.154,12.708z"/> </g> </g>
</svg>