<!DOCTYPE svg PUBLIC "-//W3C//DTD SVG 1.1//EN" "http://www.w3.org/Graphics/SVG/1.1/DTD/svg11.dtd">
<!-- Uploaded to: SVG Repo, www.svgrepo.com, Transformed by: SVG Repo Mixer Tools -->
<svg fill="#034ea2" width="800px" height="800px" viewBox="0 0 100.00 100.00" version="1.1" xml:space="preserve" xmlns="http://www.w3.org/2000/svg" xmlns:xlink="http://www.w3.org/1999/xlink" stroke="#034ea2" stroke-width="0.4">
<g id="SVGRepo_bgCarrier" stroke-width="0"/>
<g id="SVGRepo_tracerCarrier" stroke-linecap="round" stroke-linejoin="round"/>
<g id="SVGRepo_iconCarrier"> <g id="_x31_"/> <g id="_x32_"/> <g id="_x33_"/> <g id="_x34_"/> <g id="_x35_"/> <g id="_x36_"/> <g id="_x37_"/> <g id="_x38_"/> <g id="_x39_"/> <g id="_x31_0"/> <g id="_x31_1"/> <g id="_x31_2"/> <g id="_x31_3"/> <g id="_x31_4"> <path d="M75,66.5c-6,0-10.9-4.9-10.9-10.9c0-2.9,1.1-5.6,3.1-7.6c-0.2-0.8-0.3-1.6-0.3-2.5c0-1.2,0.2-2.4,0.6-3.5 c-2.2-2-3.4-4.9-3.4-7.9c0-6,4.9-10.9,10.9-10.9c3,0,5.8,1.2,7.9,3.4c4.3,3.1,7.1,10.4,7.1,18.6c0,9.9-3.9,18-9.5,19.8 C78.9,66,77,66.5,75,66.5z M75,27.2c-3.8,0-6.9,3.1-6.9,6.9c0,2.3,1.1,4.4,3,5.7c0.9,0.6,1.1,1.8,0.6,2.7c-0.6,0.9-0.8,2-0.8,3.1 c0,0.8,0.2,1.6,0.5,2.3c0.3,0.8,0.1,1.8-0.6,2.3c-1.7,1.3-2.6,3.3-2.6,5.4c0,3.8,3.1,6.9,6.9,6.9c1.3,0,2.5-0.4,3.6-1 c0.1-0.1,0.3-0.2,0.5-0.2c3.4-1,6.9-7.3,6.9-16.1c0-6.8-2.3-13.2-5.6-15.4c-0.1-0.1-0.2-0.2-0.3-0.3C78.8,28,77,27.2,75,27.2z M25,66.5c-1.9,0-3.8-0.5-5.5-1.5C13.9,63.1,10,55,10,45.2c0-8.2,2.8-15.5,7.1-18.6c2.1-2.1,4.9-3.4,7.9-3.4 c6,0,10.9,4.9,10.9,10.9c0,3-1.2,5.9-3.4,7.9c0.4,1.1,0.6,2.3,0.6,3.5c0,0.8-0.1,1.7-0.3,2.5c2,2,3.1,4.7,3.1,7.6 C35.9,61.6,31,66.5,25,66.5z M25,27.2c-2,0-3.8,0.8-5.1,2.2c-0.1,0.1-0.2,0.2-0.3,0.3C16.3,32,14,38.3,14,45.2 c0,8.8,3.5,15.1,6.9,16.1c0.2,0.1,0.3,0.1,0.5,0.2c1.1,0.7,2.4,1,3.6,1c3.8,0,6.9-3.1,6.9-6.9c0-2.1-1-4.1-2.6-5.4 c-0.7-0.6-0.9-1.5-0.6-2.3c0.3-0.7,0.5-1.5,0.5-2.3c0-1.1-0.3-2.1-0.8-3.1c-0.5-0.9-0.3-2.1,0.6-2.7c1.9-1.3,3-3.4,3-5.7 C31.9,30.3,28.8,27.2,25,27.2z M59.3,81.8c-2.8,0-5.1-2.3-5.1-5.1V48.6c0-4.1,3.3-7.4,7.4-7.4h4.2c2.6,0,4.7,2.1,4.7,4.7 c0,2.6-2.1,4.7-4.7,4.7H65c-0.4,0-0.7,0.3-0.7,0.7v25.4C64.3,79.6,62.1,81.8,59.3,81.8z M61.6,45.3c-1.9,0-3.4,1.5-3.4,3.4v28.1 c0,0.6,0.5,1.1,1.1,1.1c0.6,0,1.1-0.5,1.1-1.1V51.3c0-2.6,2.1-4.7,4.7-4.7h0.7c0.4,0,0.7-0.3,0.7-0.7c0-0.4-0.3-0.7-0.7-0.7H61.6z M40.5,81.8c-2.8,0-5.1-2.3-5.1-5.1V51.3c0-0.4-0.3-0.7-0.7-0.7h-0.7c-2.6,0-4.7-2.1-4.7-4.7c0-2.6,2.1-4.7,4.7-4.7h4.2 c4.1,0,7.4,3.3,7.4,7.4v28.1C45.6,79.6,43.3,81.8,40.5,81.8z M34.1,45.3c-0.4,0-0.7,0.3-0.7,0.7c0,0.4,0.3,0.7,0.7,0.7h0.7 c2.6,0,4.7,2.1,4.7,4.7v25.4c0,0.6,0.5,1.1,1.1,1.1s1.1-0.5,1.1-1.1V48.6c0-1.9-1.5-3.4-3.4-3.4H34.1z"/> </g> <g id="_x31_5"/> <g id="_x31_6"/> <g id="_x31_7"/> <g id="_x31_8"/> <g id="_x31_9"/> <g id="_x32_0"/> <g id="_x32_1"/> <g id="_x32_2"/> <g id="_x32_3"/> <g id="_x32_4"/> <g id="_x32_5"/> </g>
</svg>